<mxfile host="app.diagrams.net" modified="2021-02-02T05:34:13.636Z" agent="5.0 (Windows)" etag="I9fwecm1x_RYj9s_AfFf" version="14.2.6" type="github">
  <diagram id="vWbQTrKDSuzH93BMup7i" name="Page-1">
    <mxGraphModel dx="1038" dy="575" grid="1" gridSize="10" guides="1" tooltips="1" connect="1" arrows="1" fold="1" page="1" pageScale="1" pageWidth="850" pageHeight="1100" math="0" shadow="0">
      <root>
        <mxCell id="0" />
        <mxCell id="1" parent="0" />
        <mxCell id="Z8gSrko3Qwt7ldgRwcS--3" style="edgeStyle=orthogonalEdgeStyle;rounded=0;orthogonalLoop=1;jettySize=auto;html=1;exitX=0.5;exitY=1;exitDx=0;exitDy=0;entryX=0.5;entryY=0;entryDx=0;entryDy=0;" parent="1" source="Z8gSrko3Qwt7ldgRwcS--1" target="Z8gSrko3Qwt7ldgRwcS--2" edge="1">
          <mxGeometry relative="1" as="geometry" />
        </mxCell>
        <mxCell id="Z8gSrko3Qwt7ldgRwcS--1" value="Start" style="ellipse;whiteSpace=wrap;html=1;aspect=fixed;" parent="1" vertex="1">
          <mxGeometry x="400" y="40" width="80" height="80" as="geometry" />
        </mxCell>
        <mxCell id="Z8gSrko3Qwt7ldgRwcS--5" style="edgeStyle=orthogonalEdgeStyle;rounded=0;orthogonalLoop=1;jettySize=auto;html=1;exitX=0.5;exitY=1;exitDx=0;exitDy=0;entryX=0.5;entryY=0;entryDx=0;entryDy=0;" parent="1" source="Z8gSrko3Qwt7ldgRwcS--2" target="Z8gSrko3Qwt7ldgRwcS--4" edge="1">
          <mxGeometry relative="1" as="geometry" />
        </mxCell>
        <mxCell id="Z8gSrko3Qwt7ldgRwcS--2" value="&lt;div&gt;Declare variable &lt;br&gt;&lt;/div&gt;&lt;div&gt;RedLight= 0; GreenLight= 0; AmberLight=0;&lt;br&gt;&lt;/div&gt;&lt;div&gt;request-to-walk-button=0; Car-sensor= 0; Timer=0; Advanced_Left_Green-Arrow=0;Advance_Left_Amber_Arrow=0; Advanced_Left_Arrow=0;&lt;br&gt;&lt;/div&gt;" style="rounded=0;whiteSpace=wrap;html=1;" parent="1" vertex="1">
          <mxGeometry x="287" y="170" width="306" height="140" as="geometry" />
        </mxCell>
        <mxCell id="Z8gSrko3Qwt7ldgRwcS--7" style="edgeStyle=orthogonalEdgeStyle;rounded=0;orthogonalLoop=1;jettySize=auto;html=1;exitX=0.5;exitY=1;exitDx=0;exitDy=0;entryX=0.5;entryY=0;entryDx=0;entryDy=0;" parent="1" source="Z8gSrko3Qwt7ldgRwcS--4" target="Z8gSrko3Qwt7ldgRwcS--6" edge="1">
          <mxGeometry relative="1" as="geometry" />
        </mxCell>
        <mxCell id="Z8gSrko3Qwt7ldgRwcS--4" value="GreenLight=1;" style="rounded=0;whiteSpace=wrap;html=1;" parent="1" vertex="1">
          <mxGeometry x="380" y="370" width="120" height="60" as="geometry" />
        </mxCell>
        <mxCell id="Z8gSrko3Qwt7ldgRwcS--11" style="edgeStyle=orthogonalEdgeStyle;rounded=0;orthogonalLoop=1;jettySize=auto;html=1;exitX=0.5;exitY=1;exitDx=0;exitDy=0;" parent="1" source="Z8gSrko3Qwt7ldgRwcS--6" target="Z8gSrko3Qwt7ldgRwcS--17" edge="1">
          <mxGeometry relative="1" as="geometry">
            <mxPoint x="260" y="630" as="targetPoint" />
          </mxGeometry>
        </mxCell>
        <mxCell id="Z8gSrko3Qwt7ldgRwcS--6" value="color of arrow" style="rhombus;whiteSpace=wrap;html=1;" parent="1" vertex="1">
          <mxGeometry x="400" y="500" width="80" height="80" as="geometry" />
        </mxCell>
        <mxCell id="Z8gSrko3Qwt7ldgRwcS--34" style="edgeStyle=orthogonalEdgeStyle;rounded=0;orthogonalLoop=1;jettySize=auto;html=1;exitX=0.5;exitY=1;exitDx=0;exitDy=0;entryX=0.5;entryY=0;entryDx=0;entryDy=0;" parent="1" source="Z8gSrko3Qwt7ldgRwcS--15" target="Z8gSrko3Qwt7ldgRwcS--33" edge="1">
          <mxGeometry relative="1" as="geometry" />
        </mxCell>
        <mxCell id="Z8gSrko3Qwt7ldgRwcS--15" value="&lt;div&gt;Advanced_Left_Arrow=1;&lt;/div&gt;&lt;div&gt;Timer=40&lt;/div&gt;" style="rhombus;whiteSpace=wrap;html=1;" parent="1" vertex="1">
          <mxGeometry x="730" y="645" width="140" height="100" as="geometry" />
        </mxCell>
        <mxCell id="Z8gSrko3Qwt7ldgRwcS--26" style="edgeStyle=orthogonalEdgeStyle;rounded=0;orthogonalLoop=1;jettySize=auto;html=1;exitX=1;exitY=0.5;exitDx=0;exitDy=0;" parent="1" source="Z8gSrko3Qwt7ldgRwcS--16" target="Z8gSrko3Qwt7ldgRwcS--15" edge="1">
          <mxGeometry relative="1" as="geometry" />
        </mxCell>
        <mxCell id="Z8gSrko3Qwt7ldgRwcS--32" value="amber arrow=0;" style="edgeLabel;html=1;align=center;verticalAlign=middle;resizable=0;points=[];" parent="Z8gSrko3Qwt7ldgRwcS--26" vertex="1" connectable="0">
          <mxGeometry x="-0.2889" y="-4" relative="1" as="geometry">
            <mxPoint as="offset" />
          </mxGeometry>
        </mxCell>
        <mxCell id="Z8gSrko3Qwt7ldgRwcS--16" value="&lt;div&gt;Advance_left_&lt;/div&gt;&lt;div&gt;amber_arrow=1;&lt;/div&gt;&lt;div&gt;Timer=5s&lt;/div&gt;" style="rhombus;whiteSpace=wrap;html=1;" parent="1" vertex="1">
          <mxGeometry x="410" y="645" width="120" height="100" as="geometry" />
        </mxCell>
        <mxCell id="Z8gSrko3Qwt7ldgRwcS--27" value="green arrow=0" style="edgeStyle=orthogonalEdgeStyle;rounded=0;orthogonalLoop=1;jettySize=auto;html=1;exitX=1;exitY=0.5;exitDx=0;exitDy=0;entryX=0;entryY=0.5;entryDx=0;entryDy=0;" parent="1" source="Z8gSrko3Qwt7ldgRwcS--17" target="Z8gSrko3Qwt7ldgRwcS--16" edge="1">
          <mxGeometry relative="1" as="geometry" />
        </mxCell>
        <mxCell id="Z8gSrko3Qwt7ldgRwcS--17" value="&lt;div&gt;Advanced_Left_&lt;/div&gt;&lt;div&gt;Green_Arrow=1;&lt;/div&gt;&lt;div&gt;Timer=15s&lt;br&gt;&lt;/div&gt;" style="rhombus;whiteSpace=wrap;html=1;" parent="1" vertex="1">
          <mxGeometry x="160" y="640" width="140" height="110" as="geometry" />
        </mxCell>
        <mxCell id="Z8gSrko3Qwt7ldgRwcS--36" style="edgeStyle=orthogonalEdgeStyle;rounded=0;orthogonalLoop=1;jettySize=auto;html=1;exitX=0;exitY=0.5;exitDx=0;exitDy=0;" parent="1" source="Z8gSrko3Qwt7ldgRwcS--33" target="Z8gSrko3Qwt7ldgRwcS--35" edge="1">
          <mxGeometry relative="1" as="geometry" />
        </mxCell>
        <mxCell id="Z8gSrko3Qwt7ldgRwcS--33" value="GreenLight=0;" style="rounded=0;whiteSpace=wrap;html=1;" parent="1" vertex="1">
          <mxGeometry x="740" y="800" width="120" height="60" as="geometry" />
        </mxCell>
        <mxCell id="Z8gSrko3Qwt7ldgRwcS--53" style="edgeStyle=orthogonalEdgeStyle;rounded=0;orthogonalLoop=1;jettySize=auto;html=1;exitX=0.5;exitY=1;exitDx=0;exitDy=0;entryX=0.5;entryY=0;entryDx=0;entryDy=0;" parent="1" source="Z8gSrko3Qwt7ldgRwcS--35" target="Z8gSrko3Qwt7ldgRwcS--37" edge="1">
          <mxGeometry relative="1" as="geometry" />
        </mxCell>
        <mxCell id="Z8gSrko3Qwt7ldgRwcS--35" value="AmberLight=1;" style="rounded=0;whiteSpace=wrap;html=1;" parent="1" vertex="1">
          <mxGeometry x="360" y="800" width="120" height="60" as="geometry" />
        </mxCell>
        <mxCell id="Z8gSrko3Qwt7ldgRwcS--54" style="edgeStyle=orthogonalEdgeStyle;rounded=0;orthogonalLoop=1;jettySize=auto;html=1;exitX=0.5;exitY=1;exitDx=0;exitDy=0;entryX=0.5;entryY=0;entryDx=0;entryDy=0;" parent="1" source="Z8gSrko3Qwt7ldgRwcS--37" target="Z8gSrko3Qwt7ldgRwcS--39" edge="1">
          <mxGeometry relative="1" as="geometry" />
        </mxCell>
        <mxCell id="Z8gSrko3Qwt7ldgRwcS--37" value="Timer&amp;lt;10" style="rhombus;whiteSpace=wrap;html=1;" parent="1" vertex="1">
          <mxGeometry x="380" y="910" width="80" height="80" as="geometry" />
        </mxCell>
        <mxCell id="Z8gSrko3Qwt7ldgRwcS--55" style="edgeStyle=orthogonalEdgeStyle;rounded=0;orthogonalLoop=1;jettySize=auto;html=1;exitX=1;exitY=0.5;exitDx=0;exitDy=0;entryX=0;entryY=0.5;entryDx=0;entryDy=0;" parent="1" source="Z8gSrko3Qwt7ldgRwcS--39" target="Z8gSrko3Qwt7ldgRwcS--40" edge="1">
          <mxGeometry relative="1" as="geometry" />
        </mxCell>
        <mxCell id="Z8gSrko3Qwt7ldgRwcS--39" value="AmberLight=0;" style="rounded=0;whiteSpace=wrap;html=1;" parent="1" vertex="1">
          <mxGeometry x="360" y="1030" width="120" height="60" as="geometry" />
        </mxCell>
        <mxCell id="Z8gSrko3Qwt7ldgRwcS--44" style="edgeStyle=orthogonalEdgeStyle;rounded=0;orthogonalLoop=1;jettySize=auto;html=1;exitX=0.5;exitY=1;exitDx=0;exitDy=0;entryX=0.5;entryY=0;entryDx=0;entryDy=0;" parent="1" source="Z8gSrko3Qwt7ldgRwcS--40" target="Z8gSrko3Qwt7ldgRwcS--43" edge="1">
          <mxGeometry relative="1" as="geometry" />
        </mxCell>
        <mxCell id="Z8gSrko3Qwt7ldgRwcS--40" value="RedLight=1;" style="rounded=0;whiteSpace=wrap;html=1;" parent="1" vertex="1">
          <mxGeometry x="560" y="1030" width="120" height="60" as="geometry" />
        </mxCell>
        <mxCell id="Z8gSrko3Qwt7ldgRwcS--56" style="edgeStyle=orthogonalEdgeStyle;rounded=0;orthogonalLoop=1;jettySize=auto;html=1;exitX=0;exitY=0.5;exitDx=0;exitDy=0;" parent="1" source="Z8gSrko3Qwt7ldgRwcS--43" target="Z8gSrko3Qwt7ldgRwcS--49" edge="1">
          <mxGeometry relative="1" as="geometry" />
        </mxCell>
        <mxCell id="Z8gSrko3Qwt7ldgRwcS--59" style="edgeStyle=orthogonalEdgeStyle;rounded=0;orthogonalLoop=1;jettySize=auto;html=1;exitX=1;exitY=0.5;exitDx=0;exitDy=0;entryX=0;entryY=0.5;entryDx=0;entryDy=0;" parent="1" source="Z8gSrko3Qwt7ldgRwcS--43" target="Z8gSrko3Qwt7ldgRwcS--58" edge="1">
          <mxGeometry relative="1" as="geometry" />
        </mxCell>
        <mxCell id="Z8gSrko3Qwt7ldgRwcS--67" style="edgeStyle=orthogonalEdgeStyle;rounded=0;orthogonalLoop=1;jettySize=auto;html=1;exitX=1;exitY=0;exitDx=0;exitDy=0;entryX=1;entryY=0.5;entryDx=0;entryDy=0;" parent="1" source="Z8gSrko3Qwt7ldgRwcS--43" target="Z8gSrko3Qwt7ldgRwcS--4" edge="1">
          <mxGeometry relative="1" as="geometry">
            <Array as="points">
              <mxPoint x="710" y="1185" />
              <mxPoint x="710" y="400" />
            </Array>
          </mxGeometry>
        </mxCell>
        <mxCell id="Z8gSrko3Qwt7ldgRwcS--43" value="Timer&amp;lt;60" style="rhombus;whiteSpace=wrap;html=1;" parent="1" vertex="1">
          <mxGeometry x="580" y="1165" width="80" height="80" as="geometry" />
        </mxCell>
        <mxCell id="Z8gSrko3Qwt7ldgRwcS--60" style="edgeStyle=orthogonalEdgeStyle;rounded=0;orthogonalLoop=1;jettySize=auto;html=1;exitX=0.5;exitY=1;exitDx=0;exitDy=0;entryX=0;entryY=0.5;entryDx=0;entryDy=0;" parent="1" source="Z8gSrko3Qwt7ldgRwcS--49" target="Z8gSrko3Qwt7ldgRwcS--51" edge="1">
          <mxGeometry relative="1" as="geometry" />
        </mxCell>
        <mxCell id="Z8gSrko3Qwt7ldgRwcS--49" value="Car-sensor=0;" style="rounded=0;whiteSpace=wrap;html=1;" parent="1" vertex="1">
          <mxGeometry x="350" y="1175" width="120" height="60" as="geometry" />
        </mxCell>
        <mxCell id="Z8gSrko3Qwt7ldgRwcS--69" style="edgeStyle=orthogonalEdgeStyle;rounded=0;orthogonalLoop=1;jettySize=auto;html=1;exitX=0.5;exitY=1;exitDx=0;exitDy=0;entryX=0;entryY=0.5;entryDx=0;entryDy=0;strokeWidth=1;" parent="1" source="Z8gSrko3Qwt7ldgRwcS--51" target="Z8gSrko3Qwt7ldgRwcS--4" edge="1">
          <mxGeometry relative="1" as="geometry">
            <mxPoint x="565" y="1390" as="sourcePoint" />
            <mxPoint x="325" y="400" as="targetPoint" />
            <Array as="points">
              <mxPoint x="620" y="1410" />
              <mxPoint x="140" y="1410" />
              <mxPoint x="140" y="400" />
            </Array>
          </mxGeometry>
        </mxCell>
        <mxCell id="Z8gSrko3Qwt7ldgRwcS--51" value="Timer increment timer by 25s" style="rhombus;whiteSpace=wrap;html=1;" parent="1" vertex="1">
          <mxGeometry x="580" y="1300" width="80" height="90" as="geometry" />
        </mxCell>
        <mxCell id="Z8gSrko3Qwt7ldgRwcS--62" style="edgeStyle=orthogonalEdgeStyle;rounded=0;orthogonalLoop=1;jettySize=auto;html=1;exitX=0.5;exitY=1;exitDx=0;exitDy=0;entryX=1;entryY=0.5;entryDx=0;entryDy=0;" parent="1" source="Z8gSrko3Qwt7ldgRwcS--58" target="Z8gSrko3Qwt7ldgRwcS--51" edge="1">
          <mxGeometry relative="1" as="geometry" />
        </mxCell>
        <mxCell id="Z8gSrko3Qwt7ldgRwcS--58" value="Request-to-walk-button=0;" style="rounded=0;whiteSpace=wrap;html=1;" parent="1" vertex="1">
          <mxGeometry x="740" y="1175" width="120" height="60" as="geometry" />
        </mxCell>
      </root>
    </mxGraphModel>
  </diagram>
</mxfile>
